# xmcd
#
# Track frame offsets: 
#        150
#        28725
#        48450
#        61125
#        80175
#        102975
#        117300
#        132225
#        144522
#
# Disc length: 2231 seconds
#
# Revision: 0
# Processed by: cddbd v1.5.1PL2 Copyright (c) Steve Scherf et al.
# Submitted via: ExactAudioCopy v0.90a11
#
DISCID=7f08b509
DTITLE=Buddy Guy - Blues Master
DYEAR=1995
DGENRE=Blues
TTITLE0=A Man And The Blues
TTITLE1=Stormy Monday Blues
TTITLE2=It Hurts Me Too (When Things Go Wrong)
TTITLE3=My Time After A While
TTITLE4=I'm Ready
TTITLE5=Checking On My Baby
TTITLE6=So Sad This Morning
TTITLE7=24 Hours Of The Day
TTITLE8=Knock On Wood
EXTD=
EXTT0=
EXTT1=
EXTT2=
EXTT3=
EXTT4=
EXTT5=
EXTT6=
EXTT7=
EXTT8=
PLAYORDER=
